# xmcd
#
# Track frame offsets: 
#        150
#        14251
#        37544
#        55368
#        69606
#        88860
#        113503
#        127644
#        140974
#        158465
#        176754
#        201048
#
# Disc length: 2820 seconds
#
# Revision: 11
# Processed by: cddbd v1.5.2PL0 Copyright (c) Steve Scherf et al.
# Submitted via: ExactAudioCopy v1.0b1
#
DISCID=960b020c
DTITLE=America - America
DYEAR=1971
DGENRE=Countru Rock
TTITLE0=Riverside
TTITLE1=Sandman
TTITLE2=Three Roses
TTITLE3=Children
TTITLE4=A Horse With No Name
TTITLE5=Here
TTITLE6=I Need You
TTITLE7=Rainy Day
TTITLE8=Never Found the Time
TTITLE9=Clarice
TTITLE10=Donkey Jaw
TTITLE11=Pigeon Song
EXTD=YEAR: 1972
EXTT0=
EXTT1=
EXTT2=
EXTT3=
EXTT4=
EXTT5=
EXTT6=
EXTT7=
EXTT8=
EXTT9=
EXTT10=
EXTT11=
PLAYORDER=
